<?xml version="1.0" encoding="utf-8"?>
<!-- Generator: Adobe Illustrator 25.0.0, SVG Export Plug-In . SVG Version: 6.00 Build 0)  -->
<svg version="1.1" id="Calque_1" xmlns="http://www.w3.org/2000/svg" xmlns:xlink="http://www.w3.org/1999/xlink" x="0px" y="0px"
	 viewBox="0 0 2699.05 945.51" style="enable-background:new 0 0 2699.05 945.51;" xml:space="preserve">
<style type="text/css">
	.st0{fill:#42AE59;}
	.st1{fill:#F7C852;}
</style>
<g>
	<g>
		<path class="st0" d="M2226.3,50c233.48,0,422.76,189.27,422.76,422.76v0c0,233.48-189.27,422.76-422.76,422.76H50V472.76
			C50,239.27,239.27,50,472.76,50H2226.3 M2226.3,0H472.76c-63.8,0-125.72,12.51-184.03,37.17
			c-56.3,23.81-106.85,57.89-150.26,101.29c-43.4,43.4-77.48,93.95-101.29,150.26C12.51,347.04,0,408.96,0,472.76v422.76v50h50
			h2176.3c63.8,0,125.72-12.51,184.03-37.17c56.3-23.81,106.85-57.89,150.26-101.3c43.4-43.4,77.48-93.95,101.29-150.26
			c24.67-58.32,37.17-120.23,37.17-184.03s-12.51-125.72-37.17-184.03c-23.81-56.3-57.89-106.86-101.29-150.26
			c-43.4-43.4-93.95-77.48-150.26-101.29C2352.02,12.51,2290.1,0,2226.3,0L2226.3,0z"/>
	</g>
	<g>
		<polygon points="382.49,530.1 288.57,298.4 192.26,298.4 192.26,633.08 273.79,633.08 273.79,431.89 349.11,633.08 414.91,633.08 
			489.76,432.37 489.76,633.08 571.28,633.08 571.28,298.4 475.45,298.4 		"/>
		<polygon points="752.45,533.44 690.95,367.05 599.89,367.05 708.11,624.02 647.09,759.42 734.81,759.42 901.67,367.05 
			813.47,367.05 		"/>
		<path d="M1172.22,463.36c12.55-17.48,18.83-37.34,18.83-59.6c0-19.7-4.61-37.58-13.82-53.63c-9.22-16.05-23.12-28.68-41.72-37.9
			c-18.59-9.21-41.08-13.83-67.46-13.83H931.23v334.68h81.52V506.74h19.55l69.61,126.34h92.01l-77.23-132.54
			C1141.16,493.24,1159.67,480.84,1172.22,463.36z M1096.9,438.09c-7.47,7.32-18.67,10.97-33.61,10.97h-50.54V366.1h50.54
			c14.94,0,26.14,3.66,33.61,10.97c7.47,7.32,11.2,17.33,11.2,30.04C1108.1,420.45,1104.36,430.78,1096.9,438.09z"/>
		<path d="M1428.95,379.45c-20.02-10.8-42.91-16.21-68.65-16.21c-26.39,0-49.75,5.56-70.08,16.69
			c-20.34,11.13-36.16,27.02-47.44,47.67c-11.29,20.66-16.92,44.82-16.92,72.46c0,27.65,5.72,51.81,17.16,72.47
			c11.44,20.66,27.33,36.55,47.68,47.67c20.34,11.13,43.54,16.69,69.61,16.69c21.61,0,41.16-3.97,58.64-11.92
			c17.47-7.94,32.02-18.91,43.62-32.89c11.6-13.98,19.62-29.72,24.08-47.2h-86.77c-7.95,17.16-22.1,25.75-42.43,25.75
			c-13.67,0-25.19-4.37-34.56-13.11c-9.38-8.74-14.71-21.37-15.97-37.9h184.5c0.95-8.26,1.43-16.21,1.43-23.84
			c0-26.7-5.65-50.06-16.92-70.08C1464.63,405.67,1448.98,390.26,1428.95,379.45z M1307.38,474.32c2.22-14.62,8.02-25.9,17.4-33.85
			c9.37-7.94,20.89-11.92,34.56-11.92c14.3,0,26.22,4.14,35.76,12.4c9.54,8.27,14.3,19.39,14.3,33.37H1307.38z"/>
		<path d="M1718.82,396.83c-12.05-12.64-26.86-20.5-39.94-25.34c-12.89-5.5-26.91-8.26-42.06-8.26c-21.93,0-41.8,5.56-59.6,16.69
			c-17.8,11.13-31.87,27.02-42.19,47.67c-10.33,20.66-15.49,44.66-15.49,71.99c0,27.34,5.16,51.41,15.49,72.23
			c10.32,20.82,24.39,36.87,42.19,48.15c17.8,11.29,37.66,16.92,59.6,16.92c4.98,0,9.79-0.29,14.44-0.83
			c1.19-0.13,3.02-0.35,5.38-0.74c0.23-0.04,0.46-0.08,0.69-0.12c13.23-2.27,41.01-9.44,61.49-31.18v29.05h81.52v-352.8h-81.52
			V396.83z M1701.89,548.22c-11.29,11.76-25.03,17.64-41.24,17.64c-16.21,0-29.96-5.96-41.24-17.88
			c-11.29-11.92-16.92-28.05-16.92-48.39c0-20.34,5.64-36.31,16.92-47.92c11.28-11.6,25.03-17.4,41.24-17.4
			c16.21,0,29.95,5.88,41.24,17.64c11.28,11.76,16.92,27.82,16.92,48.15C1718.82,520.41,1713.17,536.46,1701.89,548.22z"/>
		<path d="M2042.52,393.92c-28.32-27.02-69.15-30.04-69.15-30.04s0,0.01,0,0.01c-4.16-0.42-8.43-0.65-12.85-0.65
			c-21.93,0-41.8,5.56-59.6,16.69c-17.8,11.13-31.87,27.02-42.19,47.67c-10.33,20.66-15.49,44.66-15.49,71.99
			c0,27.34,5.16,51.41,15.49,72.23c10.32,20.82,24.39,36.87,42.19,48.15c17.8,11.29,37.5,16.92,59.12,16.92
			c12.17,0,23.35-1.63,33.58-4.85c14.5-3.95,33.41-11.57,48.89-26.09v27.13h81.52V367.05h-81.52V393.92z M2025.6,548.22
			c-11.29,11.76-25.03,17.64-41.24,17.64c-16.21,0-29.96-5.96-41.24-17.88c-11.29-11.92-16.92-28.05-16.92-48.39
			c0-20.34,5.64-36.31,16.92-47.92c11.28-11.6,25.03-17.4,41.24-17.4c16.21,0,29.95,5.88,41.24,17.64
			c11.28,11.76,16.92,27.82,16.92,48.15C2042.52,520.41,2036.88,536.46,2025.6,548.22z"/>
		<path d="M2299.01,567.29c-14.94,0-26.86-5.8-35.76-17.4c-8.9-11.6-13.35-28.2-13.35-49.82c0-21.61,4.45-38.21,13.35-49.82
			c8.9-11.6,20.81-17.4,35.76-17.4c20.98,0,35.12,10.18,42.43,30.51h86.77c-6.99-31.78-21.69-56.41-44.1-73.9
			c-22.41-17.48-50.3-26.22-83.67-26.22c-26.06,0-49.19,5.56-69.37,16.69c-20.19,11.13-35.92,27.02-47.2,47.67
			c-11.29,20.66-16.92,44.82-16.92,72.46c0,27.65,5.64,51.81,16.92,72.47c11.28,20.66,27.01,36.55,47.2,47.67
			c20.18,11.13,43.3,16.69,69.37,16.69c33.05,0,60.86-8.89,83.43-26.7c22.56-17.8,37.34-42.27,44.34-73.42h-86.77
			C2334.13,557.12,2319.99,567.29,2299.01,567.29z"/>
	</g>
	<rect x="192.26" y="697.4" class="st1" width="81.52" height="64.48"/>
	<rect x="489.76" y="697.4" class="st1" width="81.52" height="64.48"/>
	<rect x="341.01" y="697.4" class="st1" width="81.52" height="64.48"/>
</g>
</svg>
